<?xml version="1.0" encoding="UTF-8"?>
<svg width="69px" height="72px" viewBox="0 0 69 72" version="1.1" xmlns="http://www.w3.org/2000/svg" xmlns:xlink="http://www.w3.org/1999/xlink">
    <!-- Generator: Sketch 46.2 (44496) - http://www.bohemiancoding.com/sketch -->
    <title>noun_1436179_cc</title>
    <desc>Created with Sketch.</desc>
    <defs></defs>
    <g id="Page-1" stroke="none" stroke-width="1" fill="none" fill-rule="evenodd">
        <g id="noun_1436179_cc" fill-rule="nonzero" fill="#111111">
            <path d="M21.308,6.624 C18.745,8.512 21.236,12.853 23.832,10.941 C35.048,2.68 51.243,3.566 59.479,15.636 C67.699,27.681 62.438,46.329 53.26,56.394 C43.801,66.767 27.534,70.601 15.87,61.482 C9.978,56.875 6.966,49.278 5.915,42.037 C4.607,33.029 9.022,26.515 14.473,19.866 C16.497,17.397 12.98,13.84 10.937,16.33 C6.5,21.741 2.006,27.406 0.887,34.519 C-0.205,41.458 1.819,48.936 4.759,55.2 C10.259,66.915 23.085,73.237 35.782,71.352 C61.821,67.487 80.355,28.997 60.222,8.76 C49.714,-1.803 33.046,-2.021 21.308,6.624 Z" id="Shape"></path>
            <path d="M26.315,51.995 C36.138,44.325 45.505,36.131 54.413,27.415 C56.717,25.161 53.18,21.626 50.877,23.879 C43.255,31.337 35.275,38.389 26.982,45.082 C26.829,42.653 26.51,40.243 25.991,37.819 C25.317,34.674 20.496,36.005 21.17,39.148 C21.962,42.848 22.224,46.452 22.046,50.227 C21.935,52.625 24.755,53.213 26.315,51.995 Z" id="Shape"></path>
        </g>
    </g>
</svg>