<?xml version="1.0" encoding="UTF-8"?>
<svg width="497px" height="497px" viewBox="0 0 497 497" version="1.1" xmlns="http://www.w3.org/2000/svg" xmlns:xlink="http://www.w3.org/1999/xlink">
    <!-- Generator: Sketch 48.2 (47327) - http://www.bohemiancoding.com/sketch -->
    <title>crafted-2</title>
    <desc>Created with Sketch.</desc>
    <defs></defs>
    <g id="Artboard-2" stroke="none" stroke-width="1" fill="none" fill-rule="evenodd" transform="translate(-476.000000, -1395.000000)">
        <g id="crafted-2" transform="translate(476.000000, 1395.000000)">
            <circle id="Oval-2" fill="#000000" cx="248.5" cy="248.5" r="248.5"></circle>
            <g id="Group-2" transform="translate(134.000000, 124.000000)" fill="#FFFFFF" fill-rule="nonzero">
                <path d="M15.4400568,77.6506278 C11.9060456,74.1164574 6.17671632,74.1164574 2.65310948,77.6506278 C-0.884369827,81.1847982 -0.884369827,86.9039806 2.65310948,90.438151 L61.5590762,149.346771 C63.3243478,151.11559 65.644518,152 67.9542839,152 C70.270986,152 72.5842201,151.11559 74.3494916,149.346771 C77.8835028,145.816069 77.8835028,140.093418 74.3494916,136.562716 L15.4400568,77.6506278 Z" id="Shape"></path>
                <path d="M166.342212,189.633119 C162.798494,186.10634 157.047785,186.10634 153.504068,189.633119 L140.018447,203.041112 L118.495062,181.645085 C114.954825,178.118305 109.204117,178.118305 105.660399,181.645085 C102.1132,185.171864 102.1132,190.886009 105.660399,194.409327 L127.180303,215.805355 L109.291143,233.591538 C105.743944,237.118317 105.743944,242.829001 109.291143,246.355781 C111.063002,248.11744 113.384868,249 115.706734,249 C118.032081,249 120.353947,248.11744 122.125806,246.355781 L146.420114,222.20132 C146.423595,222.197859 146.427076,222.197859 146.430557,222.194398 C146.434038,222.187476 146.434038,222.187476 146.437519,222.184015 L166.342212,202.39044 C169.885929,198.870583 169.885929,193.156438 166.342212,189.633119 Z" id="Shape"></path>
                <path d="M215.780431,107.771965 C215.780431,100.667421 218.552603,93.9908199 223.574552,88.9668427 L229.996517,82.5511821 L147.367693,0 L85.0808972,62.2256455 L132.601352,109.699447 L8.6615982,233.510563 C5.1128006,237.055877 5.1128006,242.796571 8.6615982,246.341885 C10.4307731,248.112802 12.760651,249 15.0835636,249 C17.4064763,249 19.7293889,248.112802 21.5055291,246.341885 L145.4418,122.527289 L192.962255,170.00109 L230,132.996227 L223.574552,126.580567 C218.552603,121.55311 215.780431,114.879988 215.780431,107.771965 Z M204.96339,132.349095 L192.962255,144.338447 L110.765276,62.2256455 L147.364211,25.6591633 L204.959907,83.1983149 C200.181742,90.4315895 197.618528,98.9034624 197.618528,107.771965 C197.618528,116.643947 200.185224,125.11582 204.96339,132.349095 Z" id="Shape"></path>
            </g>
        </g>
    </g>
</svg>
