<?xml version="1.0" encoding="UTF-8"?>
<svg width="51px" height="58px" viewBox="0 0 51 58" version="1.1" xmlns="http://www.w3.org/2000/svg" xmlns:xlink="http://www.w3.org/1999/xlink">
    <!-- Generator: Sketch 48.2 (47327) - http://www.bohemiancoding.com/sketch -->
    <title>goal</title>
    <desc>Created with Sketch.</desc>
    <defs></defs>
    <g id="A4" stroke="none" stroke-width="1" fill="none" fill-rule="evenodd" transform="translate(-882.000000, -1432.000000)">
        <g id="PROJECT-GOAL" transform="translate(882.000000, 1432.000000)" fill="#434343" fill-rule="nonzero">
            <g id="goal">
                <path d="M46.3383063,20.2210884 L50.847819,13.2176871 C51.0417766,12.9217687 51.0417766,12.5272109 50.8963084,12.2312925 C50.7023509,11.8860544 50.4114146,11.7380952 50.0234995,11.7380952 L41.2954103,11.7380952 L41.2954103,5.67176871 C41.2954103,5.1292517 40.8590058,4.68537415 40.3256226,4.68537415 L24.5665726,4.68537415 L24.5665726,0 L22.6269972,0 L22.6269972,33.1921769 L0.273390902,56.3231293 C-0.017545406,56.6190476 -0.0660347906,57.0136054 0.0794333632,57.4081633 C0.224901517,57.7534014 0.564327209,58 0.952242286,58 L46.2413275,58 C46.6292426,58 46.9686683,57.7534014 47.1626258,57.4081633 C47.308094,57.0136054 47.2111152,56.6190476 46.9686683,56.3231293 L24.5665726,33.2414966 L24.5665726,21.7006803 L32.3248741,21.7006803 L32.3248741,27.7670068 C32.3248741,28.3095238 32.7612786,28.7534014 33.2946618,28.7534014 L50.0234995,28.7534014 C50.3629252,28.7534014 50.7023509,28.5561224 50.8963084,28.2602041 C51.0417766,27.914966 51.0417766,27.5697279 50.847819,27.2244898 L46.3383063,20.2210884 Z M35.9130886,47.7414966 L30.676235,51.4897959 L24.3241257,46.952381 C23.9847,46.7057823 23.5482955,46.7057823 23.2088698,46.952381 L16.8567604,51.4897959 L11.4259494,47.5935374 L23.5967849,35.0170068 L35.9130886,47.7414966 Z M24.5665726,19.7278912 L24.5665726,6.65816327 L39.3558349,6.65816327 L39.3558349,19.7278912 L24.5665726,19.7278912 Z M35.6706417,26.7806122 L41.004474,21.4540816 C41.1984315,21.2568027 41.2954103,21.0102041 41.2954103,20.7636054 L41.2954103,13.7108844 L48.2293923,13.7108844 L44.3502415,19.6785714 C44.156284,20.0238095 44.156284,20.4183673 44.3502415,20.7636054 L48.2293923,26.7806122 L35.6706417,26.7806122 Z" id="Shape"></path>
            </g>
        </g>
    </g>
</svg>