<?xml version="1.0" encoding="UTF-8"?>
<svg width="59px" height="49px" viewBox="0 0 59 49" version="1.1" xmlns="http://www.w3.org/2000/svg" xmlns:xlink="http://www.w3.org/1999/xlink">
    <!-- Generator: Sketch 48.2 (47327) - http://www.bohemiancoding.com/sketch -->
    <title>implementation-2</title>
    <desc>Created with Sketch.</desc>
    <defs></defs>
    <g id="A4" stroke="none" stroke-width="1" fill="none" fill-rule="evenodd" transform="translate(-855.000000, -1933.000000)">
        <g id="IMPLEMENTATION" transform="translate(855.000000, 1933.000000)" fill="#434343" fill-rule="nonzero">
            <g id="implementation-2">
                <path d="M53.047619,6 L15.952381,6 C14.7809524,6 14,5.4 14,4.5 C14,3.6 14.7809524,3 15.952381,3 L53.047619,3 C54.2190476,3 55,3.6 55,4.5 C55,5.4 54.2190476,6 53.047619,6 Z" id="Shape"></path>
                <path d="M44.9661017,15 L25.0338983,15 C23.8135593,15 23,14.4 23,13.5 C23,12.6 23.8135593,12 25.0338983,12 L44.9661017,12 C46.1864407,12 47,12.6 47,13.5 C47,14.4 45.9830508,15 44.9661017,15 Z" id="Shape"></path>
                <path d="M23.045977,24 L9.95402299,24 C8.7816092,24 8,23.4 8,22.5 C8,21.6 8.7816092,21 9.95402299,21 L23.045977,21 C24.2183908,21 25,21.6 25,22.5 C25,23.4 24.0229885,24 23.045977,24 Z" id="Shape"></path>
                <path d="M46.1111111,24 L32.8888889,24 C31.7555556,24 31,23.4 31,22.5 C31,21.6 31.7555556,21 32.8888889,21 L46.1111111,21 C47.2444444,21 48,21.6 48,22.5 C48,23.4 47.0555556,24 46.1111111,24 Z" id="Shape"></path>
                <path d="M43.0851064,32 L19.9148936,32 C18.7659574,32 18,31.4 18,30.5 C18,29.6 18.7659574,29 19.9148936,29 L43.0851064,29 C44.2340426,29 45,29.6 45,30.5 C45,31.4 44.0425532,32 43.0851064,32 Z" id="Shape"></path>
                <path d="M52.045977,49 L38.954023,49 C37.7816092,49 37,48.4 37,47.5 C37,46.6 37.7816092,46 38.954023,46 L52.045977,46 C53.2183908,46 54,46.6 54,47.5 C54,48.4 53.2183908,49 52.045977,49 Z" id="Shape"></path>
                <path d="M30.028169,49 L19.971831,49 C18.7887324,49 18,48.4 18,47.5 C18,46.6 18.7887324,46 19.971831,46 L30.028169,46 C31.2112676,46 32,46.6 32,47.5 C32,48.4 31.0140845,49 30.028169,49 Z" id="Shape"></path>
                <path d="M52.0530973,40 L11.9469027,40 C10.7787611,40 10,39.4 10,38.5 C10,37.6 10.7787611,37 11.9469027,37 L52.0530973,37 C53.2212389,37 54,37.6 54,38.5 C54,39.4 53.2212389,40 52.0530973,40 Z" id="Shape"></path>
                <path d="M9.04878049,11 C8.65853659,11 8.07317073,10.8225806 7.68292683,10.6451613 L3.58536585,6.74193548 C2.80487805,6.03225806 2.80487805,4.96774194 3.58536585,4.25806452 L7.68292683,0.532258065 C8.46341463,-0.177419355 9.63414634,-0.177419355 10.4146341,0.532258065 C11.195122,1.24193548 11.195122,2.30645161 10.4146341,3.01612903 L7.68292683,5.5 L10.4146341,7.98387097 C11.195122,8.69354839 11.195122,9.75806452 10.4146341,10.4677419 C10.0243902,10.8225806 9.63414634,11 9.04878049,11 Z" id="Shape"></path>
                <path d="M6.04878049,44 C5.46341463,44 5.07317073,43.8225806 4.68292683,43.4677419 L0.585365854,39.7419355 C-0.195121951,39.0322581 -0.195121951,37.9677419 0.585365854,37.2580645 L4.68292683,33.5322581 C5.46341463,32.8225806 6.63414634,32.8225806 7.41463415,33.5322581 C8.19512195,34.2419355 8.19512195,35.3064516 7.41463415,36.016129 L4.68292683,38.5 L7.41463415,40.983871 C8.19512195,41.6935484 8.19512195,42.7580645 7.41463415,43.4677419 C7.2195122,43.8225806 6.63414634,44 6.04878049,44 Z" id="Shape"></path>
                <path d="M52.9512195,28 C52.3658537,28 51.9756098,27.8225806 51.5853659,27.4677419 C50.804878,26.7580645 50.804878,25.6935484 51.5853659,24.983871 L54.3170732,22.5 L51.5853659,20.016129 C50.804878,19.3064516 50.804878,18.2419355 51.5853659,17.5322581 C52.3658537,16.8225806 53.5365854,16.8225806 54.3170732,17.5322581 L58.4146341,21.2580645 C58.804878,21.6129032 59,21.9677419 59,22.5 C59,23.0322581 58.804878,23.3870968 58.4146341,23.7419355 L54.3170732,27.4677419 C53.9268293,27.8225806 53.5365854,28 52.9512195,28 Z" id="Shape"></path>
            </g>
        </g>
    </g>
</svg>