<?xml version="1.0" encoding="UTF-8"?>
<svg width="497px" height="497px" viewBox="0 0 497 497" version="1.1" xmlns="http://www.w3.org/2000/svg" xmlns:xlink="http://www.w3.org/1999/xlink">
    <!-- Generator: Sketch 48.2 (47327) - http://www.bohemiancoding.com/sketch -->
    <title>locked-in</title>
    <desc>Created with Sketch.</desc>
    <defs></defs>
    <g id="Artboard-2" stroke="none" stroke-width="1" fill="none" fill-rule="evenodd" transform="translate(-973.000000, -352.000000)">
        <g id="locked-in" transform="translate(973.000000, 352.000000)">
            <circle id="Oval-2" fill="#000000" cx="248.5" cy="248.5" r="248.5"></circle>
            <g id="Group" transform="translate(85.000000, 141.000000)" fill="#FFFFFF" fill-rule="nonzero">
                <path d="M155.128,111.094925 C154.396721,107.075821 150.740328,104.518209 147.083934,104.518209 C146.352656,104.518209 145.621377,104.518209 144.890098,104.883582 L139.405508,106.345075 L145.621377,102.691343 C149.27777,100.499104 150.740328,95.3838806 148.180852,91.7301493 L142.696262,82.5958209 C141.599344,80.7689552 139.771148,79.3074627 137.577311,78.9420896 C138.67423,77.8459701 139.771148,76.3844776 140.136787,74.9229851 C140.868066,72.3653731 140.502426,69.4423881 138.67423,66.8847761 L134.286557,60.3080597 C132.458361,58.1158209 129.898885,56.6543284 127.33941,56.6543284 C126.608131,56.6543284 125.876852,56.6543284 124.779934,57.0197015 L116.00459,59.5773134 C104.304131,62.8656716 97.3569836,75.2883582 100.647738,86.9802985 L103.572852,96.8453731 L82.7314098,109.633433 L77.2468197,103.787463 C73.2247869,99.0376119 67.008918,96.48 60.7930492,96.48 C55.308459,96.48 50.1895082,98.6722388 46.1674754,101.960597 L7.40970492,137.036418 C-1.73127869,145.074627 -2.46255738,159.324179 5.5815082,168.093134 L27.8855082,192.573134 C31.907541,197.322985 38.1234098,199.880597 44.3392787,199.880597 C49.8238689,199.880597 54.9428197,198.053731 58.9648525,194.4 L98.0882623,159.324179 C102.475934,155.305075 105.03541,149.824478 105.401049,143.978507 C105.766689,138.863284 104.304131,133.74806 101.013377,129.728955 L111.616918,123.152239 C115.273311,130.094328 122.951738,134.478806 130.995803,134.478806 C132.824,134.478806 135.017836,134.113433 136.846033,133.74806 L150.740328,130.459701 C155.128,129.363582 157.687475,124.979104 156.956197,120.594627 L155.128,111.094925 Z M60.0617705,133.017313 L65.5463607,142.151642 C67.008918,144.709254 69.5683934,146.170746 72.4935082,146.170746 C73.2247869,146.170746 73.9560656,146.170746 75.0529836,145.805373 L44.704918,173.208358 L27.5198689,153.843582 L61.1586885,123.882985 C60.4274098,124.979104 59.6961311,126.075224 59.6961311,127.171343 C58.5992131,128.998209 58.9648525,131.190448 60.0617705,133.017313 Z M108.691803,114.748657 L95.1631475,123.152239 L87.4847213,127.90209 L80.5375738,132.286567 L72.8591475,137.036418 L68.1058361,128.998209 L74.3217049,125.344478 L81.2688525,120.96 L88.9472787,116.210149 L106.132328,105.614328 L113.810754,100.864478 L121.123541,96.48 L128.801967,91.7301493 L135.383475,87.7110448 L140.136787,95.7492537 L131.361443,101.229851 L123.683016,105.979701 L116.37023,110.364179 L108.691803,114.748657 Z M109.057443,84.4226866 C107.229246,77.480597 111.251279,70.1731343 118.198426,67.9808955 L126.97377,65.4232836 L131.727082,72 C131.727082,72 131.727082,72 131.727082,72 L123.317377,75.2883582 C119.295344,76.3844776 116.735869,80.7689552 117.832787,85.1534328 L118.564066,88.0764179 L111.251279,92.4608955 L109.057443,84.4226866 Z M96.6257049,143.613134 C96.2600656,147.266866 94.7975082,150.555224 92.2380328,152.747463 L53.114623,187.823284 C50.5551475,190.015522 47.6300328,191.111642 44.3392787,191.111642 C40.6828852,191.111642 37.0264918,189.650149 34.4670164,186.727164 L12.1630164,162.247164 C7.40970492,156.766567 7.77534426,148.362985 13.2599344,143.613134 L52.3833443,108.537313 C54.9428197,106.345075 57.8679344,105.248955 61.1586885,105.248955 C64.815082,105.248955 68.4714754,106.710448 71.0309508,109.633433 L75.418623,114.383284 L68.4714754,118.767761 L67.008918,117.306269 C65.5463607,115.479403 63.3525246,114.748657 61.1586885,114.748657 C59.3304918,114.748657 57.1366557,115.479403 55.6740984,116.940896 L20.9383607,147.632239 C17.6476066,150.555224 17.2819672,155.670448 20.207082,158.958806 L38.4890492,179.419701 C39.9516066,181.246567 42.1454426,181.977313 44.3392787,181.977313 C46.1674754,181.977313 48.3613115,181.246567 49.8238689,179.785075 L84.5596066,148.362985 C87.4847213,145.805373 87.8503607,141.786269 86.0221639,138.49791 L93.3349508,134.113433 C95.5287869,137.036418 96.6257049,140.324776 96.6257049,143.613134 Z M135.017836,125.344478 C133.555279,125.709851 132.458361,126.075224 131.361443,126.075224 C126.242492,126.075224 121.85482,123.152239 119.660984,118.767761 L127.33941,114.01791 C128.801967,115.844776 130.995803,116.940896 133.555279,116.940896 C134.286557,116.940896 135.017836,116.940896 135.749115,116.575522 L147.083934,113.287164 L148.912131,122.056119 L135.017836,125.344478 Z" id="Shape"></path>
                <path d="M322.22518,159.689552 L290.048918,118.767761 C286.026885,113.287164 279.445377,110.364179 272.863869,110.364179 C267.744918,110.364179 262.991607,112.191045 258.969574,115.11403 L252.753705,119.863881 L227.52459,97.9414925 L231.180984,85.1534328 C234.471738,73.4614925 227.52459,61.4041791 215.824131,58.1158209 L205.58623,54.4620896 C204.489311,54.0967164 203.758033,54.0967164 202.661115,54.0967164 C199.004721,54.0967164 195.713967,56.6543284 194.25141,59.9426866 L191.326295,68.3462687 C190.595016,70.5385075 190.595016,73.0961194 191.691934,75.2883582 C192.788852,77.480597 194.982689,78.9420896 197.176525,79.6728358 L202.661115,81.1343284 C201.198557,81.4997015 199.736,82.5958209 198.639082,83.6919403 L191.691934,91.7301493 C188.76682,95.0185075 189.132459,100.133731 192.423213,103.056716 L195.713967,105.979701 C193.154492,105.248955 190.595016,104.518209 188.035541,104.152836 C187.304262,104.152836 186.572984,103.787463 185.841705,103.787463 C181.088393,103.787463 177.066361,107.441194 176.335082,112.191045 L175.603803,119.133134 C174.872525,123.882985 178.528918,128.632836 183.28223,129.728955 C186.938623,130.459701 190.960656,131.190448 194.617049,132.286567 C196.445246,132.65194 198.639082,133.017313 200.467279,133.017313 C207.048787,133.017313 213.264656,130.094328 217.652328,124.979104 L231.180984,136.671045 C223.136918,144.343881 222.04,157.13194 228.987148,166.266269 L261.16341,207.18806 C265.185443,212.668657 271.766951,215.591642 278.348459,215.591642 C283.46741,215.591642 288.220721,213.764776 292.242754,210.841791 L318.203148,190.015522 C328.07541,183.073433 329.903607,169.189254 322.22518,159.689552 Z M208.145705,105.248955 L200.832918,99.0376119 L199.004721,97.5761194 L202.295475,93.9223881 L205.22059,90.6340299 L211.07082,95.7492537 L218.017967,101.595224 L225.330754,107.806567 L246.172197,126.075224 L252.753705,131.921194 L258.969574,137.401791 L264.454164,142.151642 L258.238295,149.093731 L251.291148,143.247761 L245.075279,137.767164 L238.49377,131.921194 L222.04,117.671642 L214.727213,111.460299 L208.145705,105.248955 Z M258.238295,157.862687 C260.432131,157.862687 262.991607,156.766567 264.454164,154.939701 L271.401311,146.901493 C273.595148,144.343881 273.960787,140.690149 272.49823,137.767164 L300.28682,172.842985 L279.811016,188.919403 L254.581902,157.13194 C255.67882,157.862687 256.775738,157.862687 258.238295,157.862687 Z M199.736,71.6346269 L198.639082,76.0191045 L199.736,71.6346269 L202.661115,63.2310448 L213.264656,66.8847761 L213.630295,66.8847761 C220.577443,68.7116418 224.965115,76.0191045 222.771279,83.3265672 L220.211803,92.0955224 L213.264656,86.2495522 L213.995934,84.0573134 C215.092852,79.6728358 212.533377,75.2883582 208.511344,74.1922388 L199.736,71.6346269 Z M200.832918,124.979104 C199.736,124.979104 198.273443,124.979104 197.176525,124.613731 C193.154492,123.517612 189.132459,122.786866 185.476066,121.690746 C185.110426,121.690746 184.744787,121.325373 184.744787,120.96 L185.476066,114.01791 C185.476066,113.652537 185.841705,113.287164 186.207344,113.287164 C186.207344,113.287164 186.207344,113.287164 186.572984,113.287164 C189.132459,113.652537 191.691934,114.383284 193.88577,115.11403 L196.810885,115.844776 C197.542164,116.210149 198.273443,116.210149 199.004721,116.210149 C201.198557,116.210149 203.026754,115.479403 204.489311,114.01791 L211.436459,119.863881 C208.876984,123.152239 205.22059,124.979104 200.832918,124.979104 Z M313.449836,183.804179 L287.489443,204.630448 C285.295607,206.457313 282.370492,207.553433 279.079738,207.553433 C275.057705,207.553433 271.035672,205.726567 268.841836,202.438209 L236.665574,161.516418 C232.277902,156.035821 233.00918,147.997612 238.49377,143.247761 L244.709639,148.728358 C242.515803,151.651343 242.515803,155.670448 244.709639,158.593433 L273.595148,195.130746 C275.057705,196.957612 277.251541,198.053731 279.811016,198.053731 C281.639213,198.053731 283.46741,197.322985 284.929967,196.226866 L306.502689,179.054328 C309.793443,176.496716 310.524721,171.381493 307.599607,168.093134 L278.714098,131.555821 C277.251541,129.728955 275.057705,128.632836 272.49823,128.632836 C270.670033,128.632836 268.841836,129.363582 267.379279,130.459701 L265.916721,131.555821 L259.700852,126.075224 L264.454164,122.056119 C266.648,120.229254 269.573115,119.133134 272.863869,119.133134 C276.885902,119.133134 280.907934,120.96 283.10177,124.248358 L315.278033,165.170149 C320.031344,171.016119 318.934426,179.419701 313.449836,183.804179 Z" id="Shape"></path>
                <path d="M136.480393,141.786269 L116.37023,160.420299 C114.542033,161.881791 114.542033,164.804776 116.00459,166.631642 C116.735869,167.727761 118.198426,168.093134 119.295344,168.093134 C120.392262,168.093134 121.48918,167.727761 122.220459,166.997015 L142.330623,148.362985 C144.15882,146.901493 144.15882,143.978507 142.696262,142.151642 C141.233705,139.959403 138.30859,139.959403 136.480393,141.786269 Z" id="Shape"></path>
                <path d="M166.09718,148.362985 C163.537705,148.362985 161.709508,150.189851 161.709508,152.747463 L161.709508,177.227463 C161.709508,179.785075 163.537705,181.61194 166.09718,181.61194 C168.656656,181.61194 170.484852,179.785075 170.484852,177.227463 L170.484852,152.747463 C170.484852,150.189851 168.291016,148.362985 166.09718,148.362985 Z" id="Shape"></path>
                <path d="M196.079607,145.074627 C194.617049,143.247761 191.691934,142.882388 189.863738,144.709254 C188.035541,146.170746 187.669902,149.093731 189.498098,150.920597 L199.736,162.97791 C200.467279,164.07403 201.929836,164.439403 203.026754,164.439403 C204.123672,164.439403 205.22059,164.07403 205.951869,163.343284 C207.780066,161.881791 208.145705,158.958806 206.317508,157.13194 L196.079607,145.074627 Z" id="Shape"></path>
                <path d="M183.647869,48.6161194 C184.379148,49.3468657 185.476066,49.7122388 186.207344,49.7122388 C187.669902,49.7122388 188.76682,48.9814925 189.498098,48.2507463 L206.317508,27.4244776 C207.780066,25.5976119 207.414426,22.6746269 205.58623,21.2131343 C203.758033,19.7516418 200.832918,20.1170149 199.370361,21.9438806 L182.91659,42.7701493 C181.454033,44.5970149 181.819672,47.1546269 183.647869,48.6161194 Z" id="Shape"></path>
                <path d="M133.189639,51.5391045 C133.920918,52.2698507 135.017836,53.000597 136.480393,53.000597 C137.577311,53.000597 138.67423,52.6352239 139.405508,51.9044776 C141.233705,50.0776119 141.233705,47.52 139.405508,45.6931343 L123.683016,29.9820896 C121.85482,28.1552239 119.295344,28.1552239 117.467148,29.9820896 C115.638951,31.8089552 115.638951,34.3665672 117.467148,36.1934328 L133.189639,51.5391045 Z" id="Shape"></path>
                <path d="M164.268984,39.8471642 C166.828459,39.481791 168.656656,37.6549254 168.291016,35.0973134 L165.731541,4.77134328 C165.365902,2.21373134 163.537705,0.386865672 160.97823,0.752238806 C158.418754,1.11761194 156.590557,2.94447761 156.956197,5.50208955 L159.515672,35.8280597 C159.881311,38.0202985 161.709508,39.8471642 164.268984,39.8471642 C163.903344,39.8471642 164.268984,39.8471642 164.268984,39.8471642 Z" id="Shape"></path>
            </g>
        </g>
    </g>
</svg>