<?xml version="1.0" encoding="UTF-8"?>
<svg width="497px" height="497px" viewBox="0 0 497 497" version="1.1" xmlns="http://www.w3.org/2000/svg" xmlns:xlink="http://www.w3.org/1999/xlink">
    <!-- Generator: Sketch 48.2 (47327) - http://www.bohemiancoding.com/sketch -->
    <title>modern-tech</title>
    <desc>Created with Sketch.</desc>
    <defs></defs>
    <g id="Artboard-2" stroke="none" stroke-width="1" fill="none" fill-rule="evenodd" transform="translate(-1863.000000, -539.000000)">
        <g id="modern-tech" transform="translate(1863.000000, 539.000000)">
            <circle id="Oval-2" fill="#000000" cx="248.5" cy="248.5" r="248.5"></circle>
            <g id="ghost" transform="translate(146.000000, 121.000000)">
                <path d="M102.5,0 C159.109178,0 205,45.8460416 205,102.4 L205,256 L170.833333,230.4 L136.666667,256 L102.5,230.4 L68.3333333,256 L34.1666667,230.4 L0,256 L0,102.4 C0,45.8460416 45.8908217,0 102.5,0 Z M145.235113,68.7761194 C131.12663,68.7761194 119.689441,80.3231635 119.689441,94.5671642 L119.689441,111.761194 C119.689441,126.005194 131.12663,137.552239 145.235113,137.552239 C156.379753,137.552239 165.857555,130.347098 169.347826,120.299008 C161.237739,119.617475 154.549508,113.125288 153.81616,104.662647 C152.99645,95.2033517 159.92728,86.8641905 169.296581,86.0366093 C165.859275,75.9825656 156.380775,68.7761194 145.235113,68.7761194 Z M59.924554,68.7761194 C45.816071,68.7761194 34.378882,80.3231635 34.378882,94.5671642 L34.378882,111.761194 C34.378882,126.005194 45.816071,137.552239 59.924554,137.552239 C71.069194,137.552239 80.546996,130.347098 84.0372671,120.299008 C75.9271804,119.617475 69.2389488,113.125288 68.5056007,104.662647 C67.6858912,95.2033517 74.6167215,86.8641905 83.9860225,86.0366093 C80.5487161,75.9825656 71.0702158,68.7761194 59.924554,68.7761194 Z" id="Shape" fill="#FFFFFF" fill-rule="nonzero"></path>
                <path d="M83.5980928,86.3319521 C83.5138413,84.4958164 83.3144771,90.2768817 83,103.675148 C83.3307993,117.701766 83.5596596,122.689435 83.6865809,118.638154 C83.8769629,112.561234 83.7244701,89.0861556 83.5980928,86.3319521 Z" id="Path-2" stroke="#000000"></path>
                <path d="M168.475754,86.3238062 C168.391503,84.4915396 168.232918,90.4352218 168,104.154853 C168.271807,117.839054 168.471172,122.659783 168.598093,118.61704 C168.788475,112.552924 168.602132,89.0722061 168.475754,86.3238062 Z" id="Path-2" stroke="#000000"></path>
            </g>
        </g>
    </g>
</svg>