<?xml version="1.0" encoding="UTF-8"?>
<svg width="76px" height="77px" viewBox="0 0 76 77" version="1.1" xmlns="http://www.w3.org/2000/svg" xmlns:xlink="http://www.w3.org/1999/xlink">
    <!-- Generator: Sketch 48.2 (47327) - http://www.bohemiancoding.com/sketch -->
    <title>success</title>
    <desc>Created with Sketch.</desc>
    <defs></defs>
    <g id="A4" stroke="none" stroke-width="1" fill="none" fill-rule="evenodd" transform="translate(-834.000000, -2637.000000)">
        <g id="OUTCOME" transform="translate(823.000000, 2621.000000)" fill="#434343" fill-rule="nonzero">
            <g id="success" transform="translate(52.000000, 52.000000) rotate(-315.000000) translate(-52.000000, -52.000000) translate(29.000000, 2.000000)">
                <path d="M22.7291616,99.6346812 C17.9031068,99.6346812 12.5321747,96.3654182 11.2867412,89.2041755 C11.2089016,88.8149775 11.52026,88.3479399 11.909458,88.2701003 C12.298656,88.1922608 12.6878539,88.5036191 12.7656935,88.8928171 C13.8554478,95.1978243 18.5258235,98.0778893 22.651322,98.0778893 C22.651322,98.0778893 22.651322,98.0778893 22.651322,98.0778893 C26.3876226,98.0778893 31.1358379,95.6648618 32.2255922,88.8928171 C32.3034318,88.5036191 32.6926298,88.1922608 33.0818277,88.2701003 C33.4710257,88.3479399 33.7823841,88.7371379 33.7045445,89.2041755 C32.5369506,96.9102954 27.0881789,99.6346812 22.7291616,99.6346812 C22.7291616,99.6346812 22.7291616,99.6346812 22.7291616,99.6346812 Z" id="Shape"></path>
                <path d="M39.1533161,88.2701003 C38.2970806,88.2701003 37.5186846,88.1144212 36.7402887,87.8030628 C36.2732511,87.569544 35.7283739,87.3360252 35.339176,86.9468272 C35.0278176,86.7133085 34.949978,86.1684313 35.1834968,85.8570729 C35.4170156,85.5457145 35.9618927,85.4678749 36.2732511,85.7013937 C36.5846095,85.9349125 36.9738075,86.1684313 37.2851658,86.3241105 C39.5425141,87.2581856 42.1890603,86.3241105 43.200975,84.2224414 C43.6680126,83.2105267 43.7458522,82.1207724 43.3566542,81.1088576 C42.9674563,80.0191033 42.1112207,79.1628678 41.0214664,78.6958302 C40.32091,78.3844718 39.6203537,78.3066322 38.9197973,78.3066322 C38.5305994,78.3066322 38.1414014,77.9952739 38.1414014,77.6060759 C38.1414014,77.1390383 38.4527598,76.8276799 38.8419577,76.7498403 C39.7760329,76.6720007 40.7879476,76.8276799 41.6441831,77.2168779 C43.1231354,77.8395947 44.2907294,79.0850282 44.8356065,80.5639805 C45.3804837,81.9650932 45.3026441,83.5218851 44.6799273,84.8451582 C43.590173,87.0246668 41.4106644,88.2701003 39.1533161,88.2701003 Z" id="Shape"></path>
                <path d="M5.99364879,88.2701003 C3.73630054,88.2701003 1.4789523,87.0246668 0.544877163,84.9229978 C-0.0778395947,83.5218851 -0.155679189,82.0429328 0.389197973,80.6418201 C0.934075136,79.1628678 2.10166906,77.9952739 3.58062135,77.2947175 C4.4368569,76.9055195 5.44877163,76.7498403 6.38284676,76.8276799 C6.77204474,76.8276799 7.16124271,77.2168779 7.08340311,77.6839155 C7.08340311,78.150953 6.69420514,78.4623114 6.30500717,78.3844718 C5.60445082,78.3844718 4.82605487,78.4623114 4.20333811,78.7736698 C3.11358379,79.2407074 2.25734825,80.0969429 1.86815027,81.1866972 C1.4789523,82.198612 1.55679189,83.2883663 2.02382946,84.300281 C3.03574419,86.4019501 5.68229041,87.4138648 7.93963866,86.4019501 C8.32883663,86.2462709 8.64019501,86.0127521 8.95155339,85.7792333 C9.26291176,85.5457145 9.72994933,85.5457145 10.0413077,85.9349125 C10.2748265,86.2462709 10.2748265,86.791148 9.88562852,87.0246668 C9.49643055,87.3360252 9.02939298,87.6473836 8.48451582,87.8809024 C7.70611987,88.1144212 6.84988433,88.2701003 5.99364879,88.2701003 Z" id="Shape"></path>
                <path d="M32.9261485,77.8395947 L12.6878539,77.8395947 C12.298656,77.8395947 11.909458,77.5282363 11.909458,77.0611987 C11.909458,76.5941611 12.2208164,76.2828028 12.6878539,76.2828028 L32.9261485,76.2828028 C33.3153465,76.2828028 33.7045445,76.5941611 33.7045445,77.0611987 C33.7045445,77.5282363 33.3153465,77.8395947 32.9261485,77.8395947 Z" id="Shape"></path>
                <path d="M15.1008814,79.3963866 C15.1008814,79.3963866 17.4360692,82.0429328 17.4360692,85.7013937 L18.9928611,84.2224414 C18.9928611,84.2224414 20.549653,87.8809024 20.549653,88.5814587 C20.549653,89.2820151 22.1064449,87.1025064 22.8848408,85.7013937 C23.6632368,84.2224414 25.2200287,84.2224414 25.2200287,85.0008374 C25.2200287,85.7013937 25.9984246,87.8809024 25.9984246,87.8809024 L28.3336125,83.5218851 L30.6688003,79.3963866 L15.1008814,79.3963866 Z" id="Shape"></path>
                <path d="M22.9626804,20.3939738 C20.3939738,20.3939738 18.3701443,22.3399637 18.3701443,24.7529911 C18.3701443,27.1660185 20.4718134,29.1120084 22.9626804,29.1120084 C25.531387,29.1120084 27.5552165,27.1660185 27.5552165,24.7529911 C27.5552165,22.4178033 25.4535475,20.3939738 22.9626804,20.3939738 Z" id="Shape"></path>
                <path d="M23.5853972,6.53852595 L22.5734825,0 L22.0286053,6.53852595 C22.0286053,6.53852595 -2.17950865,28.1779333 10.8975433,74.7260109 L35.0278176,74.7260109 C48.1048695,28.1779333 23.5853972,6.53852595 23.5853972,6.53852595 Z M22.8070012,10.1969869 C24.7529911,12.298656 28.4892916,17.0468712 31.5250358,24.5194723 C32.3812714,26.6211414 33.1596673,29.0341688 33.8602237,31.7585546 C26.698981,33.0818277 19.2263799,33.0818277 12.0651372,31.7585546 C12.7656935,28.9563292 13.5440895,26.5433018 14.3224854,24.4416327 C17.2025504,17.0468712 20.938851,12.298656 22.8070012,10.1969869 Z M32.6926298,71.6124271 L13.2327311,71.6124271 C9.10723258,55.6553102 9.65210974,42.7339375 11.6759392,33.3153465 C15.3344001,34.0159029 19.0707007,34.3272612 22.8070012,34.3272612 C26.6211414,34.3272612 30.4352815,33.9380633 34.1715821,33.3153465 C36.1954115,42.7339375 36.8181283,55.6553102 32.6926298,71.6124271 Z" id="Shape"></path>
                <path d="M2.80222541,67.8761265 C2.41302743,67.8761265 2.10166906,67.5647682 2.02382946,67.1755702 L1.08975433,59.7808087 L7.62828028,53.5536411 C7.93963866,53.2422827 8.40667622,53.2422827 8.7180346,53.5536411 C9.02939298,53.8649995 9.02939298,54.3320371 8.7180346,54.6433955 L2.72438581,60.3256859 L3.50278176,66.9420514 C3.58062135,67.409089 3.26926298,67.798287 2.80222541,67.798287 C2.880065,67.8761265 2.880065,67.8761265 2.80222541,67.8761265 Z" id="Shape"></path>
                <path d="M22.5734825,68.8102017 C22.1842845,68.8102017 21.7950865,68.4988433 21.7950865,68.0318057 L21.7950865,56.0445082 C21.7950865,55.5774706 22.1064449,55.2661122 22.5734825,55.2661122 C22.9626804,55.2661122 23.3518784,55.5774706 23.3518784,56.0445082 L23.3518784,68.0318057 C23.3518784,68.4210037 22.9626804,68.8102017 22.5734825,68.8102017 Z" id="Shape"></path>
                <path d="M42.4225791,67.8761265 C42.4225791,67.8761265 42.3447395,67.8761265 42.3447395,67.8761265 C41.9555415,67.798287 41.6441831,67.409089 41.6441831,67.019891 L42.4225791,60.4035255 L36.5846095,54.721235 C36.2732511,54.4098767 36.2732511,53.9428391 36.5846095,53.6314807 C36.8959679,53.3201223 37.3630054,53.3201223 37.6743638,53.6314807 L44.2128898,59.8586483 L43.2788146,67.2534098 C43.200975,67.6426078 42.8117771,67.8761265 42.4225791,67.8761265 Z" id="Shape"></path>
            </g>
        </g>
    </g>
</svg>